<svg width="16" height="16" viewBox="0 0 16 16" fill="none" xmlns="http://www.w3.org/2000/svg">
<path d="M2.86395 8.0001L8.52528 2.1821C8.5719 2.13522 8.60874 2.07955 8.6337 2.01833C8.65866 1.95711 8.67122 1.89155 8.67068 1.82544C8.67013 1.75933 8.65647 1.69398 8.6305 1.63318C8.60453 1.57239 8.56676 1.51734 8.51938 1.47124C8.472 1.42513 8.41594 1.38888 8.35445 1.36458C8.29297 1.34028 8.22727 1.32842 8.16117 1.32968C8.09507 1.33094 8.02988 1.34529 7.96936 1.37191C7.90885 1.39854 7.85421 1.43689 7.80862 1.48477L1.80862 7.65143C1.7178 7.74478 1.66699 7.86987 1.66699 8.0001C1.66699 8.13033 1.7178 8.25542 1.80862 8.34877L7.80862 14.5154C7.85421 14.5633 7.90885 14.6017 7.96936 14.6283C8.02988 14.6549 8.09507 14.6693 8.16117 14.6705C8.22727 14.6718 8.29297 14.6599 8.35445 14.6356C8.41594 14.6113 8.472 14.5751 8.51938 14.529C8.56676 14.4829 8.60453 14.4278 8.6305 14.367C8.65647 14.3062 8.67013 14.2409 8.67068 14.1748C8.67122 14.1087 8.65866 14.0431 8.6337 13.9819C8.60874 13.9207 8.5719 13.865 8.52528 13.8181L2.86395 8.0001Z" fill="#1C1C1C"/>
</svg>
