<svg width="29" height="23" viewBox="0 0 29 23" fill="none" xmlns="http://www.w3.org/2000/svg">
<g clip-path="url(#clip0_48_2407)">
<path d="M0.649124 0.666748C3.59049 0.666748 6.41138 1.83725 8.49124 3.92075C10.5711 6.00425 11.7396 8.83008 11.7396 11.7766V22.3334C8.79819 22.3334 5.9773 21.1629 3.89744 19.0794C1.81758 16.9959 0.649124 14.1701 0.649124 11.2236V0.666748Z" fill="#780096"/>
<path d="M12.708 13.3508V7.74489C12.708 6.81506 12.8909 5.89434 13.2462 5.03533C13.6016 4.17633 14.1224 3.39587 14.7789 2.73855C15.4354 2.08124 16.2148 1.55994 17.0725 1.20446C17.9302 0.848969 18.8494 0.666253 19.7776 0.666749V6.27453C19.7776 7.20427 19.5947 8.1249 19.2393 8.9838C18.884 9.8427 18.3632 10.623 17.7066 11.2802C17.0501 11.9374 16.2707 12.4585 15.413 12.8138C14.5553 13.169 13.6362 13.3515 12.708 13.3508Z" fill="#780096"/>
<path d="M12.708 14.4456H20.8101C22.897 14.4456 24.8983 15.276 26.3739 16.7542C27.8496 18.2324 28.6786 20.2373 28.6786 22.3278H20.5765C18.4896 22.3278 16.4883 21.4973 15.0127 20.0191C13.537 18.5409 12.708 16.5361 12.708 14.4456Z" fill="#780096"/>
</g>
<defs>
<clipPath id="clip0_48_2407">
<rect width="28.0351" height="21.6667" fill="white" transform="translate(0.649124 0.666748)"/>
</clipPath>
</defs>
</svg>
